<?xml version="1.0" encoding="utf-8"?>
<svg xmlns="http://www.w3.org/2000/svg" xmlns:xlink="http://www.w3.org/1999/xlink" version= "1.1" width="720px" height="1424px" viewBox="0 0 720 1424">
<g id="layer1">
<g>
<g style="fill:rgb(0,0,0); fill-opacity:1.0; stroke-linejoin: miter">
<path d="M1586.6906,3376.834C1585.099,3377.5938,1583.1979,3379.6694,1581.746,3382.2637C1581.1913,3383.1978,1579.566,3385.6172,1578.0785,3387.622C1568.6735,3400.2798,1559.3356,3408.0269,1549.34,3411.4497C1542.32,3413.835,1525.3044,3415.8418,1502.2031,3417.018C1498.3303,3417.191,1483.1477,3417.3638,1468.4838,3417.3633C1439.1925,3417.3633,1439.0192,3417.398,1434.8356,3419.442C1431.7572,3420.962,1429.0948,3423.5215,1427.7455,3426.2896L1426.6044,3428.5723L1426.5011,3435.9385C1426.3622,3445.7593,1426.88,3447.6274,1430.8229,3451.3262C1432.622,3452.9863,1434.351,3454.0244,1437.3248,3455.2007C1438.9491,3455.8203,1440.09,3455.8887,1456.6561,3455.9922L1474.2245,3456.1323L1474.0167,3457.5845C1473.9137,3458.3809,1472.7374,3468.4438,1471.3895,3479.96C1470.0404,3491.4775,1468.4154,3505.4834,1467.7589,3511.121C1466.4445,3522.2925,1466.2723,3526.3735,1467.0321,3528.2075C1468.0001,3530.4883,1467.8273,3530.4531,1485.6731,3530.455C1496.2554,3530.455,1502.1001,3530.315,1502.7915,3530.0737C1504.279,3529.5542,1504.7976,3527.9302,1505.4541,3521.496C1506.2151,3514.2344,1506.1814,3514.166,1502.9636,3513.6802C1499.9556,3513.1982,1498.1228,3511.02,1497.8135,3507.563C1497.7087,3506.4556,1498.4353,3498.7773,1499.7485,3487.7441C1500.8889,3477.8516,1502.1687,3466.8545,1502.5842,3463.2563L1503.344,3456.79L1505.7314,3456.791C1515.3445,3456.79,1540.5907,3459.625,1547.3002,3461.4585C1551.2079,3462.5308,1557.087,3465.4702,1561.0643,3468.3403C1567.4623,3472.939,1575.1051,3481.273,1580.7775,3489.8179C1583.8551,3494.4863,1585.1007,3495.938,1586.7601,3496.7349C1588.3514,3497.495,1590.6339,3497.3904,1592.4318,3496.4568C1594.2313,3495.5574,1595.1295,3494.4163,1595.5446,3492.5505C1595.9598,3490.7507,1595.9581,3382.7126,1595.5441,3380.9143C1595.129,3379.1165,1594.2645,3377.9749,1592.6395,3377.1458C1590.7357,3376.1414,1588.4196,3376.0376,1586.6906,3376.834 Z"/>
</g>
<g style="fill:rgb(0,0,0); fill-opacity:1.0; stroke-linejoin: miter">
<path d="M1620.0629,3385.616C1617.8839,3387.968,1615.1866,3390.8381,1614.0455,3392.049C1611.3136,3394.9192,1610.7948,3395.9905,1611.452,3397.2366C1612.0406,3398.238,1613.3895,3398.7224,1614.3224,3398.2727C1615.0839,3397.8918,1615.0148,3397.928,1619.9247,3392.6013C1622.0345,3390.3538,1623.798,3388.4163,1623.9015,3388.3142C1625.5621,3386.6882,1627.3602,3384.2693,1627.3602,3383.681C1627.3602,3382.5745,1626.1151,3381.3972,1624.9745,3381.3982C1624.1451,3381.3982,1623.3143,3382.1233,1620.0629,3385.616 Z"/>
</g>
<g style="fill:rgb(0,0,0); fill-opacity:1.0; stroke-linejoin: miter">
<path d="M1632.9285,3408.5469C1628.4674,3410.3113,1624.5941,3412.0383,1624.3522,3412.383C1623.3497,3413.7668,1624.3861,3415.9802,1626.0468,3415.9783C1627.3956,3415.9812,1643.5808,3409.412,1643.9612,3408.7197C1644.8953,3406.9897,1643.8918,3405.2598,1642.0249,3405.2964C1641.4707,3405.2969,1637.3906,3406.749,1632.9285,3408.5469 Z"/>
</g>
<g style="fill:rgb(0,0,0); fill-opacity:1.0; stroke-linejoin: miter">
<path d="M1630.1971,3433.2732C1628.3649,3434.034,1628.4337,3436.6985,1630.3358,3437.4246C1630.8201,3437.6338,1635.1091,3437.7715,1640.019,3437.7715L1648.8379,3437.771L1649.6677,3436.9058C1650.7048,3435.9004,1650.7742,3435.002,1649.8755,3433.9307L1649.2183,3433.1025L1640.0884,3433.0322C1635.0732,3432.9976,1630.6465,3433.101,1630.1971,3433.2732 Z"/>
</g>
<g style="fill:rgb(0,0,0); fill-opacity:1.0; stroke-linejoin: miter">
<path d="M1624.5936,3455.4739C1623.7291,3456.4084,1623.6954,3457.6184,1624.5253,3458.448C1624.8707,3458.7932,1628.9525,3460.593,1633.5862,3462.4624C1641.2639,3465.5054,1642.0933,3465.7817,1642.9924,3465.4019C1644.0996,3464.9517,1644.5496,3463.7065,1644.0996,3462.359C1643.8228,3461.5967,1642.6814,3461.043,1635.3154,3458.1055C1630.6465,3456.272,1626.4962,3454.7488,1626.0809,3454.7122C1625.6664,3454.7131,1625.0087,3455.0593,1624.5936,3455.4739 Z"/>
</g>
<g style="fill:rgb(0,0,0); fill-opacity:1.0; stroke-linejoin: miter">
<path d="M1611.9706,3472.8352C1610.4843,3474.323,1610.8295,3475.2576,1614.0455,3478.6443C1615.1869,3479.8552,1617.8839,3482.7263,1620.0636,3485.0427C1623.3143,3488.6052,1624.1454,3489.2976,1624.9752,3489.2976C1625.528,3489.2976,1626.2894,3488.985,1626.6705,3488.6062C1628.0184,3487.2595,1627.6376,3486.4983,1622.795,3481.2727C1620.3055,3478.5422,1617.4342,3475.464,1616.4664,3474.3918C1614.2887,3472.0403,1613.182,3471.6262,1611.9706,3472.8352 Z"/>
</g>
</g>
<g>
<g style="fill:rgb(0,0,0); fill-opacity:1.0; stroke-linejoin: miter">
<path d="M1834.8921,3820.7024C1830.8098,3823.9148,1825.6694,3825.8372,1820.084,3825.8372C1814.6377,3825.8376,1809.6101,3824.01,1805.5784,3820.9392C1792.4211,3823.065,1782.3716,3834.4722,1782.3718,3848.2305C1782.3721,3863.504,1794.7512,3853.5742,1810.023,3853.5752L1832.3301,3853.5762C1847.602,3853.5747,1859.9832,3863.5034,1859.9829,3848.2305C1859.9827,3833.824,1848.9619,3821.9949,1834.8921,3820.7024 Z"/>
</g>
<g style="fill:rgb(0,0,0); fill-opacity:1.0; stroke-linejoin: miter">
<path d="M1820.084,3822.619C1831.5403,3822.6194,1840.8599,3813.298,1840.8596,3801.8406C1840.8599,3790.3845,1831.5403,3781.0632,1820.084,3781.0637C1808.6274,3781.0632,1799.3069,3790.3843,1799.3071,3801.8408C1799.3081,3813.2983,1808.6284,3822.619,1820.084,3822.619 Z"/>
</g>
</g>
<g>
<g style="fill:rgb(0,0,0); fill-opacity:1.0; stroke-linejoin: miter">
<path d="M1917.7812,3823.9417C1913.904,3826.9924,1909.0215,3828.819,1903.7161,3828.819C1898.5425,3828.8186,1893.7671,3827.0828,1889.9375,3824.1667C1877.4402,3826.1858,1867.8948,3837.0212,1867.8945,3850.0894C1867.8948,3864.5967,1879.6536,3855.1655,1894.1592,3855.1658L1915.3477,3855.1663C1929.8545,3855.1663,1941.614,3864.596,1941.6138,3850.089C1941.614,3836.4055,1931.1458,3825.1697,1917.7812,3823.9417 Z"/>
</g>
<g style="fill:rgb(0,0,0); fill-opacity:1.0; stroke-linejoin: miter">
<path d="M1903.7158,3825.7625C1914.5974,3825.7625,1923.45,3816.9094,1923.4497,3806.0261C1923.4497,3795.1443,1914.5974,3786.2898,1903.7158,3786.2898C1892.8337,3786.2898,1883.9812,3795.1438,1883.9807,3806.0251C1883.9819,3816.908,1892.8345,3825.762,1903.7158,3825.7625 Z"/>
</g>
</g>
<g>
<g style="fill:rgb(0,0,0); fill-opacity:1.0; stroke-linejoin: miter">
<path d="M1878.3154,3741.4202C1874.2959,3744.5833,1869.2349,3746.4768,1863.7354,3746.4768C1858.3728,3746.4768,1853.4229,3744.678,1849.4534,3741.6545C1836.4993,3743.7483,1826.6045,3754.9797,1826.6045,3768.5256C1826.6047,3783.5632,1838.7935,3773.7874,1853.8298,3773.7869L1875.793,3773.7874C1890.8296,3773.7869,1903.019,3783.5623,1903.0193,3768.5256C1903.019,3754.3406,1892.1685,3742.694,1878.3154,3741.4202 Z"/>
</g>
<g style="fill:rgb(0,0,0); fill-opacity:1.0; stroke-linejoin: miter">
<path d="M1863.7354,3743.3074C1875.0149,3743.3074,1884.1904,3734.1306,1884.1904,3722.8494C1884.1904,3711.5696,1875.0146,3702.3928,1863.7356,3702.3933C1852.4556,3702.3938,1843.2788,3711.5715,1843.2788,3722.8503C1843.2795,3734.1316,1852.4565,3743.3083,1863.7354,3743.3074 Z"/>
</g>
</g>
<g style="fill:rgb(0,0,0); fill-opacity:1.0; stroke-linejoin: miter">
<path d="M1594.2559,4064.7368C1599.2244,4064.689,1603.3246,4064.6804,1603.3705,4064.7253C1603.4165,4064.7708,1603.2565,4065.5808,1603.0214,4066.5276C1602.7867,4067.4753,1602.4341,4068.8508,1602.243,4069.6147C1602.0519,4070.3635,1601.6558,4071.9216,1601.3766,4073.0525C1601.0826,4074.182,1600.5836,4076.183,1600.2457,4077.4832C1599.6729,4079.8052,1599.1587,4081.8218,1598.7467,4083.4111C1598.6294,4083.8525,1598.4958,4084.2505,1598.466,4084.2966C1598.3733,4084.3767,1584.6545,4084.7495,1581.0829,4084.7837C1580.5587,4084.7898,1580.2532,4084.7874,1580.2412,4084.7761C1580.2106,4084.7295,1580.2827,4084.3032,1580.3995,4083.813C1580.5172,4083.3242,1581.5453,4079.2454,1582.6914,4074.7542C1583.8225,4070.2622,1584.7917,4066.4114,1584.851,4066.1978C1584.8944,4065.984,1584.9972,4065.587,1585.0862,4065.3115L1585.2338,4064.822 Z M1578.3561,4064.9146C1579.3497,4064.9048,1580.0339,4064.943,1580.1144,4065.0227C1580.2223,4065.128,1580.1069,4065.8157,1579.7842,4067.129C1579.5046,4068.1992,1579.064,4069.9565,1578.8003,4071.0566C1578.5359,4072.1409,1578.066,4074.0051,1577.7572,4075.1814C1577.1404,4077.626,1576.5684,4079.9487,1576.348,4080.835C1576.2748,4081.1714,1576.0107,4082.2102,1575.7603,4083.1577L1575.3035,4084.852L1573.4603,4084.9612C1572.4398,4085.017,1568.4783,4085.1313,1564.6686,4085.213C1560.8588,4085.2947,1554.5956,4085.4314,1550.7561,4085.5286L1543.7916,4085.6853L1543.7263,4075.5662L1543.6755,4065.4468L1559.7537,4065.2173C1568.5919,4065.0872,1576.7605,4064.9636,1577.9033,4064.9219C1578.06,4064.9187,1578.2112,4064.916,1578.3561,4064.9146 Z M1531.2582,4065.5142C1535.6425,4065.4727,1538.8751,4065.471,1538.8754,4065.5212C1538.9279,4066.2073,1539.0975,4085.6985,1539.0522,4085.7446C1538.9407,4085.8586,1520.0093,4086.268,1513.2522,4086.332C1511.8019,4086.345,1510.9124,4086.3425,1510.8909,4086.3198C1510.8137,4086.243,1510.61,4085.636,1510.4355,4084.9668C1509.8667,4082.7925,1507.0859,4072.516,1506.8501,4071.741C1506.4412,4070.3574,1505.3499,4066.223,1505.3484,4066.0544C1505.3469,4065.8872,1508.7605,4065.8079,1528.4044,4065.5457C1529.3928,4065.5332,1530.3502,4065.5234,1531.2582,4065.5142 Z M1487.495,4066.0833C1488.2299,4066.0764,1488.9918,4066.0708,1489.7721,4066.065L1500.5316,4066.0088L1500.8009,4067.073C1500.9435,4067.6506,1501.3231,4069.0957,1501.639,4070.2668C1501.9706,4071.4355,1502.507,4073.4128,1502.8389,4074.675C1503.1862,4075.9216,1504.0397,4079.099,1504.7505,4081.713C1505.4609,4084.3286,1506.0149,4086.4883,1505.9844,4086.518C1505.8965,4086.6091,1491.0447,4086.944,1486.0789,4086.991C1485.0968,4087.0007,1484.5018,4086.9983,1484.4839,4086.9814C1484.422,4086.936,1484.202,4086.2058,1483.996,4085.371C1483.7748,4084.534,1483.4269,4083.1963,1483.2058,4082.4053C1482.0057,4078.059,1481.1057,4074.7437,1480.3793,4072.0825C1479.9519,4070.4412,1479.4154,4068.4944,1479.21,4067.7498C1479.02,4066.9895,1478.8767,4066.3364,1478.9216,4066.2595C1478.9609,4066.206,1482.6434,4066.1296,1487.495,4066.0833 Z M1574.0536,4089.605L1573.953,4090.2603C1573.8955,4090.6274,1573.7484,4091.2234,1573.6306,4091.6047C1573.5122,4091.987,1572.7924,4094.8289,1572.0143,4097.9453C1569.7542,4107.052,1569.314,4108.823,1568.3589,4112.6113C1568.0499,4113.7886,1567.7423,4115.056,1567.639,4115.438L1567.4781,4116.127L1544.16,4116.3506L1543.9907,4103.379L1543.8372,4090.395L1548.1337,4090.264C1550.5109,4090.1934,1556.2247,4090.034,1560.8265,4089.9292C1565.444,4089.8237,1570.29,4089.703,1571.6309,4089.6743L1574.0536,4089.605 Z M1506.3873,4091.2002C1506.8798,4091.1965,1507.136,4091.2441,1507.2352,4091.354C1507.4045,4091.55,1507.9569,4093.5115,1510.1848,4101.811C1510.8484,4104.274,1511.5273,4106.737,1511.6849,4107.2837C1511.858,4107.8315,1512.0629,4108.546,1512.142,4108.8794C1512.2216,4109.2144,1512.7118,4111.068,1513.248,4112.9995C1513.7695,4114.9297,1514.2118,4116.5566,1514.2125,4116.618C1514.2124,4116.6553,1510.9108,4116.715,1506.4124,4116.7573C1505.444,4116.766,1504.42,4116.776,1503.3617,4116.7827L1492.5107,4116.84L1492.068,4115.167C1491.8152,4114.24,1491.3732,4112.598,1491.073,4111.519C1490.4727,4109.2847,1489.7931,4106.7603,1489.1775,4104.526C1486.3029,4094.0051,1485.7651,4091.9685,1485.8558,4091.8298C1485.9155,4091.7393,1487.6522,4091.6455,1490.2432,4091.6213C1494.815,4091.5474,1504.1864,4091.3064,1505.9841,4091.2126C1506.1332,4091.2053,1506.2678,4091.2004,1506.3873,4091.2002 Z M1539.0814,4090.3928L1539.1312,4090.8198C1539.1802,4091.154,1539.4156,4115.9053,1539.3745,4116.3477C1539.36,4116.424,1534.8031,4116.5137,1529.2406,4116.567L1519.1212,4116.663L1518.8704,4115.9336C1518.7446,4115.538,1517.4183,4110.703,1515.9325,4105.1855C1514.432,4099.6685,1512.9788,4094.2715,1512.694,4093.1763C1512.394,4092.0962,1512.187,4091.1846,1512.2178,4091.1538C1512.2775,4091.077,1517.123,4090.939,1528.9027,4090.6895C1533.1388,4090.5881,1537.162,4090.488,1537.832,4090.451L1539.0814,4090.3928 Z M1594.3452,4089.143C1596.1742,4089.126,1597.1982,4089.1619,1597.2482,4089.2466C1597.2946,4089.3218,1597.2806,4089.5198,1597.1909,4089.6587C1597.1162,4089.8115,1597.0276,4090.132,1596.9843,4090.3918C1596.941,4090.6362,1596.7363,4091.5073,1596.5302,4092.3022C1595.6774,4095.5862,1595.0753,4097.954,1594.7524,4099.254C1594.5609,4100.002,1594.1649,4101.591,1593.871,4102.767C1593.5623,4103.9434,1593.063,4105.9297,1592.7395,4107.1973C1592.1371,4109.5664,1591.9758,4110.238,1591.1091,4113.6455C1590.8302,4114.7446,1590.5498,4115.722,1590.4893,4115.815C1590.4299,4115.9375,1587.6262,4116.01,1581.4086,4116.069C1572.9655,4116.149,1572.4319,4116.1406,1572.429,4115.8804C1572.4266,4115.653,1574.8341,4105.9355,1576.8906,4097.824C1577.0817,4097.106,1577.5952,4095.0127,1578.0657,4093.178C1578.5208,4091.3296,1578.9778,4089.725,1579.0682,4089.6187C1579.1886,4089.4639,1580.2856,4089.4075,1583.8208,4089.3438C1586.3352,4089.2896,1590.3739,4089.2214,1592.7811,4089.1667C1593.3536,4089.1548,1593.8761,4089.1477,1594.3452,4089.143 Z M1569.2273,4153.8354C1570.2052,4153.827,1571.1821,4153.9155,1571.9697,4154.112C1575.8192,4155.05,1578.8787,4157.825,1580.3026,4161.6987C1580.6624,4162.686,1580.7114,4163.0215,1580.7316,4165.1543C1580.7689,4167.38,1580.7401,4167.578,1580.3398,4168.74C1579.9689,4169.825,1579.7444,4170.2993,1579.1005,4171.481C1578.7411,4172.138,1577.4736,4173.521,1576.5056,4174.309C1575.3561,4175.25,1573.8093,4176.0576,1572.396,4176.45C1571.7034,4176.6465,1570.5732,4176.753,1569.4434,4176.7627C1568.2904,4176.7734,1567.1385,4176.6855,1566.452,4176.492C1563.7473,4175.7554,1561.1685,4173.89,1559.6687,4171.603C1557.2863,4167.922,1557.209,4163.046,1559.491,4159.366C1561.0973,4156.7754,1563.5331,4154.938,1566.3916,4154.179C1567.197,4153.9624,1568.2124,4153.846,1569.2273,4153.8354 Z M1508.0569,4154.413C1508.9902,4154.4033,1509.918,4154.5005,1510.7793,4154.7095C1513.8044,4155.442,1516.3834,4157.323,1517.9932,4159.9595C1521.9113,4166.4146,1518.6227,4174.8135,1511.3271,4176.97C1510.5042,4177.22,1509.4073,4177.349,1508.2972,4177.36C1507.152,4177.3696,1505.9938,4177.255,1505.1094,4177.0156C1499.6997,4175.5576,1495.9279,4170.0005,1496.6688,4164.5967C1497.2096,4160.6157,1499.3903,4157.515,1503.0001,4155.591C1504.4115,4154.8423,1506.2446,4154.43,1508.0569,4154.413 Z M1469.4259,4037.4395C1468.6963,4037.446,1467.6166,4037.4736,1466.0123,4037.5156C1463.3152,4037.5872,1457.9364,4037.7292,1454.0809,4037.811C1452.8579,4037.8367,1451.8402,4037.8606,1450.9937,4037.8777L1450.9951,4037.8787L1451.0625,4044.9612L1451.0625,4044.9617C1452.6196,4044.9224,1455.0131,4044.8772,1457.6232,4044.834L1465.5629,4044.6985L1466.8104,4049.2583C1467.4894,4051.7676,1468.374,4055.0208,1468.7688,4056.4795C1469.1633,4057.939,1469.7009,4059.9302,1469.9696,4060.888C1470.2222,4061.8462,1470.6016,4063.2441,1470.8069,4064.0042C1471.0122,4064.7493,1471.6119,4066.9385,1472.1333,4068.8694C1473.1443,4072.5784,1474.7867,4078.614,1477.8352,4089.849C1478.0728,4090.7617,1478.4987,4092.312,1478.752,4093.269C1479.0199,4094.227,1479.415,4095.6711,1479.6207,4096.4624C1480.7416,4100.552,1483.7897,4111.7544,1484.4059,4114.02C1484.8007,4115.435,1486.0342,4120.1636,1487.1726,4124.5107C1488.2963,4128.861,1489.2927,4132.6597,1489.3717,4132.9487C1489.4656,4133.239,1490.178,4136.0054,1490.9543,4139.1074C1491.7463,4142.194,1492.4432,4144.9766,1492.5374,4145.266C1492.6165,4145.555,1493.0442,4147.226,1493.4875,4148.9893C1493.9307,4150.739,1494.3583,4152.411,1494.4375,4152.7C1494.564,4153.172,1494.5345,4153.2637,1493.7206,4154.247C1490.3901,4158.287,1488.8905,4164.0312,1489.8533,4169.1274C1490.2706,4171.3354,1490.6156,4172.353,1491.595,4174.308C1493.9722,4179.104,1498.5482,4182.7334,1503.8191,4184.023C1505.2584,4184.3784,1506.736,4184.5425,1508.2114,4184.528C1513.5278,4184.4766,1518.8204,4182.12,1522.2656,4178.041C1525.2799,4174.462,1526.7651,4170.377,1526.7205,4165.7446C1526.6857,4162.0713,1525.6318,4158.622,1523.5914,4155.5923C1523.1586,4154.943,1522.8026,4154.381,1522.8022,4154.351C1522.802,4154.3057,1529.9341,4154.2075,1538.6508,4154.125C1547.3685,4154.0405,1554.5017,4154.0186,1554.5018,4154.08C1554.5024,4154.1553,1554.2174,4154.615,1553.8716,4155.122C1552.4891,4157.178,1551.4183,4159.902,1550.9866,4162.6025C1550.6399,4164.663,1550.8083,4167.8936,1551.3768,4169.99C1552.8146,4175.3115,1556.1616,4179.472,1561.0159,4181.925C1563.7262,4183.3154,1566.414,4183.9316,1569.5366,4183.9023C1569.573,4183.9014,1569.6099,4183.8994,1569.6467,4183.9004C1572.801,4183.856,1574.9147,4183.3325,1577.8578,4181.8706C1585.5946,4178.0024,1589.5946,4169.018,1587.3337,4160.595C1585.5166,4153.831,1580.1946,4148.759,1573.1838,4147.15C1572.0991,4146.901,1570.1023,4146.888,1536.2676,4147.1357C1516.6074,4147.2764,1500.4832,4147.37,1500.4523,4147.324C1500.3906,4147.264,1498.3652,4139.464,1497.1615,4134.7046C1496.5122,4132.1196,1494.9773,4126.2515,1494.6936,4125.2324C1494.5669,4124.746,1494.4861,4124.2437,1494.5305,4124.12C1494.605,4123.936,1501.7074,4123.8394,1545.3247,4123.4233L1596.0443,4122.943L1596.9102,4119.458C1598.3054,4113.8823,1598.9371,4111.3765,1599.9509,4107.435C1600.1708,4106.5024,1600.6558,4104.577,1601.0231,4103.1562C1601.375,4101.721,1601.8163,4100.009,1601.9932,4099.3364C1602.1542,4098.665,1603.0356,4095.2268,1603.9165,4091.6997C1604.8125,4088.1692,1605.6648,4084.7935,1605.8114,4084.2122C1605.9584,4083.6174,1606.2812,4082.3494,1606.5315,4081.386C1606.766,4080.4238,1607.4711,4077.6272,1608.0881,4075.1968C1608.7048,4072.7537,1609.3662,4070.1406,1609.557,4069.391C1609.7482,4068.6272,1610.1445,4067.053,1610.4391,4065.8765C1610.7474,4064.7,1611.334,4062.3318,1611.7754,4060.6208L1612.5535,4057.5051L1571.6036,4057.9866C1549.0792,4058.261,1518.5839,4058.643,1503.8165,4058.8442C1497.0328,4058.9336,1491.3773,4058.9988,1487.0295,4059.0403C1480.5055,4059.1018,1476.9241,4059.1086,1476.887,4059.0544C1476.8093,4058.9182,1475.9889,4055.9993,1474.852,4051.8489C1474.5991,4050.8904,1474.1729,4049.309,1473.9044,4048.3516C1473.6516,4047.3943,1473.2723,4045.9812,1473.0673,4045.2358C1472.6086,4043.4866,1471.1086,4038.0303,1470.9983,4037.6665C1470.9369,4037.4863,1470.8109,4037.4258,1469.4259,4037.4395 Z"/>
</g>
<g style="fill:rgb(0,0,0); fill-opacity:1.0; stroke-linejoin: miter">
<path d="M1298.8137,3845.201C1301.5964,3843.4968,1301.4321,3847.028,1301.4321,3792.7693C1301.4321,3744.2017,1301.4321,3743.62,1300.6016,3742.2495C1298.898,3739.4648,1307.0837,3739.6743,1195.4904,3739.6746C1083.8966,3739.674,1092.0824,3739.4666,1090.3788,3742.2493C1089.5485,3743.6199,1089.5485,3744.2014,1089.5485,3792.7693C1089.5485,3847.0276,1089.3817,3843.4968,1092.1666,3845.2004C1093.4965,3846.031,1095.0748,3846.031,1195.4923,3846.0312C1295.9058,3846.031,1297.4839,3846.031,1298.8137,3845.201 Z M1119.5846,3833.2356C1118.9208,3829.2053,1117.6735,3826.1716,1115.3878,3823.389C1111.9393,3819.069,1107.12,3816.3684,1101.9701,3815.8284L1099.518,3815.5798L1099.518,3792.8533L1099.518,3770.1277L1101.9701,3769.8787C1107.1222,3769.3381,1111.9415,3766.6375,1115.3881,3762.3176C1117.5912,3759.5764,1118.9188,3756.5842,1119.5438,3752.679L1119.9999,3750.0608L1195.5294,3750.0618L1271.0175,3750.0615L1271.3092,3752.2205C1272.224,3758.785,1276.1285,3764.5188,1281.7783,3767.635C1284.1047,3768.8796,1288.0508,3770.0022,1290.0874,3770.0022L1291.458,3770.0032L1291.4583,3792.7698L1291.4583,3815.4954L1288.217,3816.036C1279.2422,3817.4475,1272.4293,3824.5525,1271.3073,3833.6506L1271.0153,3835.9773L1195.5272,3835.9783L1119.9955,3835.9768L1119.5846,3833.2356 Z"/>
</g>
<g style="fill:rgb(0,0,0); fill-opacity:1.0; stroke-linejoin: miter">
<path d="M1257.932,3804.319C1261.7545,3802.9065,1264.745,3799.7073,1265.7438,3796.0095C1266.3663,3793.6833,1265.9923,3789.653,1264.9135,3787.534C1263.7914,3785.3333,1261.6312,3783.1711,1259.3461,3781.967C1256.8531,3780.6375,1251.2858,3780.5964,1248.8339,3781.926C1246.2155,3783.3376,1244.8036,3784.6672,1243.474,3787.1194C1242.3519,3789.072,1242.2286,3789.7375,1242.2286,3792.8538C1242.2286,3795.969,1242.3541,3796.635,1243.474,3798.5872C1245.6339,3802.533,1248.8749,3804.529,1253.4454,3804.7776C1255.2726,3804.8591,1256.9354,3804.6926,1257.932,3804.319 Z"/>
</g>
<g style="fill:rgb(0,0,0); fill-opacity:1.0; stroke-linejoin: miter">
<path d="M1140.7712,3804.319C1144.676,3802.864,1147.5842,3799.7483,1148.5807,3795.9695C1149.6617,3791.9802,1148.0405,3786.3723,1145.0913,3783.8787C1142.4319,3781.6345,1140.6868,3781.0115,1136.905,3781.0115C1134.0383,3781.0115,1133.0415,3781.1775,1131.5886,3781.967C1124.2354,3785.8718,1122.6136,3795.595,1128.3887,3801.3704C1129.2188,3802.159,1130.6741,3803.24,1131.6296,3803.7375C1133.833,3804.8596,1138.529,3805.152,1140.7712,3804.319 Z"/>
</g>
<g style="fill:rgb(0,0,0); fill-opacity:1.0; stroke-linejoin: miter">
<path d="M1557.5992,3608.499L1557.5992,3608.5005C1664.6304,3714.029,1665.8086,3856.3728,1560.9564,3962.7183L1560.9564,3962.7192C1559.851,3963.8398,1558.7272,3964.963,1557.5985,3966.0757L1545.0922,3953.3896C1546.1586,3952.3394,1547.2289,3951.269,1548.2719,3950.211L1548.2719,3950.2124C1646.168,3850.9202,1645.1672,3719.8542,1545.0917,3621.1836 Z M1397.2494,3889.5442L1397.2494,3889.5452C1480.818,3829.9219,1593.0101,3829.922,1676.5837,3889.5437L1666.2383,3904.0457C1588.8546,3848.8389,1484.9731,3848.8394,1407.5956,3904.046 Z M1531.7429,3619.5278L1531.7429,3619.5288C1430.9523,3718.8984,1429.9415,3850.9165,1528.5376,3950.9229L1528.5376,3950.9238C1529.5913,3951.9912,1530.666,3953.0654,1531.7427,3954.1274L1519.2368,3966.813C1518.1013,3965.6934,1516.9648,3964.5571,1515.8528,3963.4287L1515.8528,3963.4297C1410.3019,3856.3682,1411.4877,3713.0728,1519.2368,3606.8433 Z M1536.0675,3622.274L1536.0675,3622.2744C1445.067,3622.7393,1371.674,3696.888,1372.1459,3787.888L1372.1461,3787.8894C1372.6061,3878.8982,1446.7594,3952.2808,1537.767,3951.8203L1537.7655,3951.8213C1628.7614,3951.3489,1702.1597,3877.2058,1701.6877,3786.201L1701.6877,3786.2C1701.2268,3695.8606,1628.1058,3622.7395,1537.766,3622.2734L1537.8412,3622.2744L1536.0507,3622.2798C1533.6772,3622.287,1531.3994,3621.3477,1529.7217,3619.6694C1528.044,3617.9912,1527.1062,3615.7124,1527.1152,3613.3398L1527.1152,3613.3408L1527.1152,3613.334L1536.0675,3622.274 M1535.9758,3604.4604C1538.3524,3604.4478,1540.6344,3605.3853,1542.3158,3607.064C1543.9967,3608.7432,1544.9374,3611.024,1544.9283,3613.4L1544.9283,3613.4014L1544.9283,3613.4062L1535.9927,3604.4668L1537.7831,3604.46L1537.858,3604.461C1637.9641,3604.9768,1718.9907,3686.0024,1719.5012,3786.11L1719.5012,3786.1086C1720.0244,3886.9539,1638.6895,3969.111,1537.8575,3969.6338L1537.8568,3969.6343C1437.0143,3970.144,1354.8431,3888.8303,1354.3326,3787.9788L1354.3326,3787.9797C1353.8097,3687.1414,1435.1381,3604.9766,1535.9758,3604.4604 Z M1545.8239,3613.3672L1545.8239,3613.3682L1545.8239,3960.7275L1528.0095,3960.7285L1528.01,3613.3667 Z M1710.6001,3795.951L1710.6001,3795.9514L1363.2335,3795.9573L1363.2333,3778.1433L1710.6001,3778.137 Z M1407.5953,3675.2974L1407.5953,3675.2983C1484.9734,3730.498,1588.8551,3730.498,1666.2388,3675.2966L1676.583,3689.798C1593.0096,3749.4153,1480.818,3749.415,1397.2496,3689.7986 Z"/>
</g>
<g style="fill:rgb(0,0,0); fill-opacity:1.0; stroke-linejoin: miter">
<path d="M1855.2758,3926.2017L1855.2758,3926.204C1839.0614,3965.3252,1816.0104,4000.8828,1787.6155,4031.3901L1770.4097,4015.3767C1796.9242,3986.8892,1818.4362,3953.7002,1833.5621,3917.204 Z"/>
</g>
<g style="fill:rgb(0,0,0); fill-opacity:1.0; stroke-linejoin: miter">
<path d="M1778.8914,4040.437L1778.8914,4040.439C1749.3997,4069.9543,1714.6919,4094.2693,1676.26,4111.88L1666.4683,4090.513C1702.3262,4074.0813,1734.7236,4051.389,1762.2634,4023.8235 Z"/>
</g>
<g style="fill:rgb(0,0,0); fill-opacity:1.0; stroke-linejoin: miter">
<path d="M1395.0758,4117.15L1395.0758,4117.152C1355.9384,4100.9683,1320.3619,4077.9475,1289.8306,4049.5803L1305.8291,4032.36C1334.3378,4058.8484,1367.5472,4080.3337,1404.0568,4095.429 Z"/>
</g>
<g style="fill:rgb(0,0,0); fill-opacity:1.0; stroke-linejoin: miter">
<path d="M1280.7761,4040.864L1280.7761,4040.8655C1251.233,4011.3962,1226.8898,3976.7102,1209.2457,3938.2944L1230.6049,3928.4841C1247.0665,3964.325,1269.788,3996.7058,1297.375,4024.222 Z"/>
</g>
<g style="fill:rgb(0,0,0); fill-opacity:1.0; stroke-linejoin: miter">
<path d="M1203.7362,3657.114L1203.7362,3657.1155C1219.8843,3617.9614,1242.8759,3582.3657,1271.2155,3551.8115L1288.4485,3567.7954C1261.9855,3596.3262,1240.5294,3629.5513,1225.4648,3666.0752 Z"/>
</g>
<g style="fill:rgb(0,0,0); fill-opacity:1.0; stroke-linejoin: miter">
<path d="M1279.9248,3542.7495L1279.9248,3542.7515C1309.3672,3513.1821,1344.035,3488.8076,1382.4325,3471.1318L1392.2609,3492.483C1356.4369,3508.974,1324.0736,3531.7246,1296.5801,3559.3345 Z"/>
</g>
<g style="fill:rgb(0,0,0); fill-opacity:1.0; stroke-linejoin: miter">
<path d="M1663.6096,3465.3809L1663.6096,3465.3833C1702.7776,3481.4966,1738.3911,3504.458,1768.9683,3532.7705L1752.9993,3550.016C1724.447,3523.5796,1691.2043,3502.151,1654.6665,3487.1177 Z"/>
</g>
<g style="fill:rgb(0,0,0); fill-opacity:1.0; stroke-linejoin: miter">
<path d="M1778.0378,3541.4714L1778.0378,3541.4739C1807.6322,3570.8909,1832.0343,3605.5369,1849.7428,3643.9182L1828.4005,3653.765C1811.878,3617.9543,1789.1022,3585.6125,1761.4668,3558.141 Z"/>
</g>
<g style="fill:rgb(0,0,0); fill-opacity:1.0; stroke-linejoin: miter">
<path d="M1597.0581,4064.2117C1602.0267,4064.1626,1606.1267,4064.1545,1606.1727,4064.1997C1606.2189,4064.245,1606.059,4065.0554,1605.8239,4066.0022C1605.5887,4066.9492,1605.2365,4068.3252,1605.0453,4069.0896C1604.8544,4069.8376,1604.4579,4071.3965,1604.179,4072.527C1603.885,4073.6562,1603.3859,4075.6575,1603.0477,4076.9565C1602.475,4079.2786,1601.9607,4081.296,1601.549,4082.8855C1601.4318,4083.3267,1601.2985,4083.725,1601.2682,4083.7715C1601.1759,4083.8518,1587.457,4084.224,1583.8854,4084.2585C1583.3608,4084.2634,1583.0553,4084.2622,1583.0436,4084.25C1583.013,4084.2043,1583.0852,4083.777,1583.202,4083.288C1583.3193,4082.7993,1584.3478,4078.7205,1585.4933,4074.228C1586.6248,4069.7368,1587.5942,4065.886,1587.6533,4065.6729C1587.6969,4065.4587,1587.7994,4065.0618,1587.8885,4064.7861L1588.036,4064.297 Z M1581.1584,4064.3892C1582.1521,4064.3796,1582.8363,4064.418,1582.9169,4064.497C1583.0248,4064.6028,1582.9094,4065.2903,1582.5863,4066.6033C1582.3069,4067.6736,1581.8663,4069.4316,1581.6028,4070.531C1581.3384,4071.6155,1580.8684,4073.4802,1580.5594,4074.6562C1579.9425,4077.0999,1579.3705,4079.4229,1579.1501,4080.3093C1579.077,4080.6455,1578.8126,4081.6846,1578.5623,4082.6318L1578.106,4084.327L1576.263,4084.4368C1575.2424,4084.4927,1571.2806,4084.6064,1567.4707,4084.6873C1563.6613,4084.7695,1557.3977,4084.905,1553.5585,4085.0034L1546.5944,4085.1614L1546.5286,4075.0417L1546.478,4064.922L1562.5559,4064.6917C1571.3944,4064.5623,1579.5629,4064.4382,1580.7057,4064.3965C1580.8624,4064.393,1581.0137,4064.391,1581.1584,4064.3892 Z M1534.0604,4064.9893C1538.4453,4064.9465,1541.6776,4064.9458,1541.6779,4064.9963C1541.7302,4065.6816,1541.8999,4085.1736,1541.8547,4085.2195C1541.7429,4085.3337,1522.8115,4085.7415,1516.0547,4085.807C1514.6044,4085.82,1513.7146,4085.8174,1513.693,4085.794C1513.6161,4085.718,1513.4125,4085.11,1513.238,4084.4412C1512.6688,4082.2673,1509.8884,4071.9907,1509.6526,4071.2156C1509.2433,4069.8318,1508.152,4065.697,1508.1503,4065.5288C1508.1492,4065.3618,1511.5629,4065.283,1531.2065,4065.02C1532.195,4065.0076,1533.1522,4064.9978,1534.0604,4064.9893 Z M1490.2975,4065.5583C1491.032,4065.552,1491.7941,4065.546,1492.5743,4065.5398L1503.334,4065.4836L1503.6034,4066.5479C1503.7457,4067.1252,1504.1257,4068.5706,1504.4417,4069.7417C1504.7727,4070.9102,1505.3094,4072.8872,1505.6412,4074.15C1505.9885,4075.396,1506.842,4078.5737,1507.553,4081.188C1508.2631,4083.8037,1508.8173,4085.9622,1508.7867,4085.9927C1508.6987,4086.084,1493.8469,4086.42,1488.8813,4086.4656C1487.899,4086.4739,1487.304,4086.4722,1487.2861,4086.4558C1487.2242,4086.4104,1487.0043,4085.6797,1486.7981,4084.8445C1486.5768,4084.0083,1486.2288,4082.671,1486.008,4081.8794C1484.8081,4077.5334,1483.9078,4074.2188,1483.1816,4071.558C1482.7543,4069.9163,1482.2179,4067.9692,1482.0123,4067.2246C1481.8224,4066.4644,1481.6788,4065.8113,1481.7239,4065.7346C1481.7634,4065.6807,1485.4458,4065.6042,1490.2975,4065.5583 Z M1576.8561,4089.0789L1576.7555,4089.7354C1576.698,4090.1016,1576.5508,4090.6973,1576.4326,4091.0796C1576.3146,4091.4622,1575.5947,4094.3037,1574.8164,4097.42C1572.5564,4106.527,1572.1165,4108.2983,1571.1613,4112.086C1570.8524,4113.2637,1570.5447,4114.5312,1570.4413,4114.9126L1570.2804,4115.6L1546.9622,4115.8237L1546.7931,4102.8535L1546.6396,4089.8699L1550.9359,4089.737C1553.3134,4089.6685,1559.0271,4089.509,1563.629,4089.404C1568.2465,4089.2988,1573.0919,4089.1765,1574.4329,4089.1487L1576.8561,4089.0789 Z M1509.1896,4090.675C1509.6823,4090.6714,1509.9385,4090.719,1510.0375,4090.8281C1510.207,4091.025,1510.7593,4092.9854,1512.9872,4101.2847C1513.6509,4103.7485,1514.3298,4106.2124,1514.4874,4106.7573C1514.6605,4107.305,1514.8651,4108.0195,1514.9445,4108.355C1515.0239,4108.689,1515.514,4110.5435,1516.0503,4112.473C1516.5717,4114.4043,1517.0143,4116.0312,1517.0149,4116.093C1517.0148,4116.1294,1513.7133,4116.1895,1509.2148,4116.2324C1508.2465,4116.2407,1507.2225,4116.251,1506.1642,4116.258L1495.3129,4116.315L1494.8701,4114.6416C1494.6173,4113.714,1494.1752,4112.0728,1493.875,4110.993C1493.2747,4108.759,1492.5953,4106.2354,1491.98,4104.0015C1489.1052,4093.4797,1488.5676,4091.4436,1488.6581,4091.3047C1488.7177,4091.2134,1490.4545,4091.1204,1493.0453,4091.096C1497.6174,4091.0212,1506.9888,4090.78,1508.7866,4090.6875C1508.9354,4090.6802,1509.0702,4090.6753,1509.1896,4090.675 Z M1541.8839,4089.8677L1541.9337,4090.2947C1541.9827,4090.6287,1542.2181,4115.379,1542.1769,4115.8228C1542.1622,4115.899,1537.6056,4115.9883,1532.0428,4116.042L1521.9235,4116.137L1521.6725,4115.408C1521.5469,4115.013,1520.2208,4110.178,1518.7349,4104.66C1517.2343,4099.143,1515.781,4093.7458,1515.4961,4092.6506C1515.1962,4091.5708,1514.9893,4090.659,1515.0198,4090.6274C1515.0796,4090.5505,1519.9254,4090.413,1531.705,4090.1636C1535.941,4090.063,1539.9644,4089.9626,1540.6345,4089.9258L1541.8839,4089.8677 Z M1597.1475,4088.6177C1598.9766,4088.6,1600.0006,4088.6367,1600.0502,4088.7217C1600.097,4088.7969,1600.0831,4088.9949,1599.9934,4089.1335C1599.9186,4089.2864,1599.8298,4089.6072,1599.7866,4089.867C1599.7434,4090.1113,1599.5388,4090.9824,1599.3326,4091.777C1598.4796,4095.0613,1597.8774,4097.429,1597.5548,4098.7285C1597.3632,4099.476,1596.9673,4101.0654,1596.6733,4102.2417C1596.3644,4103.4175,1595.8652,4105.405,1595.542,4106.672C1594.9395,4109.041,1594.7783,4109.7124,1593.9115,4113.1206C1593.6324,4114.219,1593.3519,4115.1978,1593.2917,4115.29C1593.2319,4115.4116,1590.4287,4115.4844,1584.2109,4115.544C1575.7677,4115.6235,1575.2341,4115.615,1575.2313,4115.3555C1575.229,4115.1274,1577.6366,4105.4097,1579.6929,4097.2983C1579.8835,4096.5796,1580.3976,4094.4873,1580.868,4092.6528C1581.3231,4090.8042,1581.7802,4089.2,1581.8706,4089.0923C1581.9911,4088.9387,1583.088,4088.8823,1586.6232,4088.8188C1589.1377,4088.7646,1593.176,4088.6953,1595.5833,4088.6414C1596.1559,4088.6294,1596.6782,4088.6213,1597.1475,4088.6177 Z M1572.0295,4153.31C1573.0076,4153.3003,1573.9845,4153.39,1574.7721,4153.5874C1578.6215,4154.5244,1581.681,4157.3,1583.1049,4161.174C1583.4647,4162.1606,1583.5137,4162.4956,1583.5338,4164.6284C1583.5709,4166.854,1583.5421,4167.052,1583.142,4168.2144C1582.7711,4169.3003,1582.5468,4169.774,1581.9027,4170.9546C1581.5432,4171.614,1580.276,4172.9966,1579.308,4173.7837C1578.1584,4174.723,1576.6117,4175.5317,1575.1985,4175.926C1574.5056,4176.121,1573.3755,4176.2266,1572.2456,4176.2373C1571.0929,4176.248,1569.9409,4176.161,1569.2545,4175.967C1566.5493,4175.2295,1563.971,4173.3657,1562.471,4171.0786C1560.0886,4167.397,1560.0112,4162.519,1562.2935,4158.842C1563.8997,4156.2495,1566.3356,4154.4126,1569.1941,4153.655C1569.999,4153.437,1571.0149,4153.3203,1572.0295,4153.31 Z M1510.8594,4153.887C1511.7926,4153.878,1512.7203,4153.9746,1513.5817,4154.184C1516.6068,4154.917,1519.1857,4156.7974,1520.7955,4159.435C1524.7133,4165.8896,1521.4248,4174.288,1514.1295,4176.446C1513.3066,4176.696,1512.2096,4176.8228,1511.0995,4176.8345C1509.9545,4176.844,1508.796,4176.729,1507.9113,4176.4897C1502.5022,4175.033,1498.7302,4169.475,1499.4711,4164.071C1500.0121,4160.0903,1502.1927,4156.99,1505.8022,4155.0654C1507.2137,4154.3164,1509.047,4153.9043,1510.8594,4153.887 Z M1472.2281,4036.9133C1471.4987,4036.9207,1470.419,4036.9482,1468.8148,4036.9902C1466.1176,4037.062,1460.7386,4037.2031,1456.8832,4037.2856C1455.66,4037.3113,1454.6425,4037.3357,1453.7959,4037.3528L1453.7976,4037.3538L1453.8646,4044.4355L1453.8646,4044.4365C1455.422,4044.3965,1457.8154,4044.351,1460.4257,4044.309L1468.3649,4044.1729L1469.6129,4048.7334C1470.2919,4051.2424,1471.1765,4054.4954,1471.5712,4055.954C1471.9658,4057.4138,1472.5033,4059.4053,1472.7721,4060.3628C1473.0245,4061.321,1473.404,4062.7185,1473.6093,4063.479C1473.8145,4064.2239,1474.4142,4066.4128,1474.9357,4068.3438C1475.9467,4072.0527,1477.5891,4078.0889,1480.6375,4089.3237C1480.8746,4090.2363,1481.3007,4091.7866,1481.554,4092.7434C1481.822,4093.7014,1482.2173,4095.1458,1482.423,4095.9363C1483.544,4100.027,1486.592,4111.23,1487.2081,4113.4946C1487.6029,4114.9097,1488.8364,4119.638,1489.9751,4123.9854C1491.0986,4128.3354,1492.0951,4132.1343,1492.1738,4132.4233C1492.268,4132.7124,1492.9803,4135.4805,1493.7568,4138.5825C1494.5481,4141.668,1495.2451,4144.45,1495.3395,4144.74C1495.4183,4145.0293,1495.8463,4146.7007,1496.2898,4148.465C1496.7328,4150.2124,1497.1604,4151.8857,1497.2397,4152.1753C1497.3662,4152.6455,1497.3364,4152.7393,1496.5228,4153.722C1493.1925,4157.7617,1491.6927,4163.506,1492.6555,4168.602C1493.073,4170.809,1493.4178,4171.8267,1494.3972,4173.7837C1496.7743,4178.578,1501.3506,4182.207,1506.6215,4183.4976C1508.0609,4183.853,1509.5383,4184.016,1511.0135,4184.0024C1516.33,4183.952,1521.6228,4181.5947,1525.0681,4177.5156C1528.0824,4173.9365,1529.5675,4169.8516,1529.5227,4165.2188C1529.4879,4161.546,1528.4343,4158.097,1526.3937,4155.0664C1525.9608,4154.4175,1525.6049,4153.855,1525.6045,4153.8247C1525.6041,4153.779,1532.7362,4153.682,1541.4531,4153.598C1550.171,4153.5166,1557.3043,4153.4937,1557.3044,4153.5557C1557.305,4153.631,1557.0199,4154.0903,1556.6738,4154.5967C1555.2914,4156.6533,1554.2202,4159.375,1553.7885,4162.077C1553.4424,4164.1377,1553.6108,4167.369,1554.1792,4169.466C1555.6167,4174.7856,1558.964,4178.947,1563.8182,4181.4004C1566.5286,4182.791,1569.2163,4183.4062,1572.339,4183.3755C1572.3752,4183.3755,1572.4121,4183.3735,1572.4491,4183.3745C1575.6035,4183.3306,1577.7169,4182.806,1580.6603,4181.345C1588.3967,4177.4766,1592.3967,4168.4927,1590.1359,4160.07C1588.3188,4153.304,1582.9968,4148.2334,1575.9861,4146.6235C1574.9015,4146.3755,1572.9047,4146.363,1539.0701,4146.6104C1519.4095,4146.751,1503.2856,4146.8447,1503.2548,4146.799C1503.193,4146.7393,1501.1676,4138.9385,1499.9636,4134.1787C1499.3146,4131.5938,1497.7797,4125.726,1497.496,4124.7075C1497.3691,4124.22,1497.2882,4123.7183,1497.3328,4123.595C1497.4073,4123.4106,1504.5099,4123.315,1548.1273,4122.899L1598.8464,4122.4175L1599.7125,4118.9326C1601.1075,4113.357,1601.7394,4110.852,1602.7535,4106.9087C1602.9731,4105.977,1603.4583,4104.0513,1603.8256,4102.6313C1604.1775,4101.196,1604.6184,4099.484,1604.7954,4098.811C1604.9565,4098.1396,1605.838,4094.702,1606.7188,4091.1733C1607.6149,4087.6438,1608.4669,4084.2676,1608.6138,4083.6865C1608.7606,4083.091,1609.0836,4081.823,1609.3339,4080.8613C1609.5682,4079.898,1610.2733,4077.1018,1610.8906,4074.6716C1611.5072,4072.228,1612.1686,4069.615,1612.3595,4068.8662C1612.5504,4068.1018,1612.9467,4066.5273,1613.2412,4065.351C1613.5497,4064.1743,1614.1364,4061.8064,1614.5776,4060.0957L1615.356,4056.9795L1574.406,4057.461C1551.8813,4057.7356,1521.3864,4058.1174,1506.6188,4058.319C1499.8353,4058.4084,1494.1796,4058.4731,1489.8319,4058.5144C1483.308,4058.5762,1479.7264,4058.5833,1479.6891,4058.529C1479.6116,4058.3926,1478.7913,4055.4731,1477.6544,4051.3235C1477.4016,4050.3655,1476.9751,4048.7837,1476.7069,4047.8264C1476.4539,4046.8694,1476.0746,4045.4556,1475.8694,4044.7104C1475.4111,4042.961,1473.9106,4037.5042,1473.8005,4037.1409C1473.739,4036.9602,1473.6133,4036.8997,1472.2281,4036.9133 Z"/>
</g>
<g style="fill:rgb(0,0,0); fill-opacity:1.0; stroke-linejoin: miter">
<path d="M1192.2081,3764.451C1192.125,3764.451,1192.0568,3764.5166,1192.0535,3764.5996L1191.928,3767.7559L1191.928,3767.7556L1191.8068,3770.7651L1189.1665,3771.6455L1189.1659,3771.6455C1182.7131,3773.8237,1179.5475,3777.9495,1179.5475,3784.173C1179.5475,3791.4624,1184.7448,3796.2449,1193.5201,3797.2478L1193.5215,3797.248C1199.816,3797.9138,1200.0819,3797.997,1201.281,3799.197C1202.8602,3800.799,1202.6565,3802.6394,1201.269,3804.0078C1200.089,3805.1716,1198.0424,3805.9963,1195.4904,3805.9963C1193.3062,3805.9963,1190.6155,3805.1267,1189.66,3804.1323L1189.658,3804.1301L1189.655,3804.1272L1189.6552,3804.1272C1189.0802,3803.5103,1188.6978,3803.1538,1187.9197,3803.1538C1187.1691,3803.1538,1186.0381,3803.4866,1183.9357,3804.132L1183.9355,3804.132C1181.1494,3804.9893,1180.0735,3805.455,1180.4727,3806.7517L1180.4728,3806.7517C1180.5886,3807.1282,1180.8264,3807.5664,1181.148,3808.0989L1181.1488,3808.1003C1182.9995,3811.0876,1185.6079,3812.9763,1189.6256,3814.231L1189.626,3814.2312L1191.8047,3814.9058L1191.9255,3817.9531L1192.0513,3821.1187C1192.0546,3821.2017,1192.1227,3821.2673,1192.2058,3821.2673L1195.488,3821.2688L1195.4882,3821.2688L1198.768,3821.2678C1198.8511,3821.2678,1198.9193,3821.2021,1198.9226,3821.1191L1199.0481,3817.919L1199.1691,3814.8354L1200.9257,3814.407L1200.928,3814.4065C1207.215,3812.7703,1210.9669,3808.5664,1211.3461,3802.5913L1211.346,3802.5913C1211.8501,3794.7197,1206.7391,3789.5132,1197.5804,3788.5105L1197.5808,3788.5105C1191.253,3787.8008,1190.9382,3787.7166,1189.6979,3786.518L1189.6978,3786.518C1188.1177,3784.9153,1188.3212,3783.075,1189.7091,3781.7065C1190.8904,3780.5422,1192.9342,3779.7185,1195.4872,3779.7185L1195.4882,3779.7185C1197.6711,3779.7185,1200.3639,3780.5889,1201.318,3781.582L1201.3177,3781.582C1201.8955,3782.2012,1202.2784,3782.5598,1203.0581,3782.5598C1203.809,3782.5598,1204.9393,3782.227,1207.0426,3781.5813L1207.0435,3781.581C1209.6283,3780.772,1210.6002,3780.331,1210.6002,3779.6042C1210.6002,3778.4434,1208.5065,3775.538,1206.6783,3774.0823L1206.6774,3774.0815C1205.1284,3772.8684,1201.1476,3771.0999,1199.8922,3771.0999C1199.4961,3771.0999,1199.153,3770.5068,1199.153,3769.3337C1199.153,3768.9768,1199.1863,3768.5818,1199.2561,3768.1646L1199.2562,3768.163C1199.3828,3767.3655,1199.3862,3766.2644,1199.2125,3765.6504L1199.2124,3765.6504C1198.928,3764.471,1198.6406,3764.4514,1195.4882,3764.4514L1192.2081,3764.451 Z"/>
</g>
</g>
</svg>